<svg height="512" viewBox="0 0 512 512" width="512" xmlns="http://www.w3.org/2000/svg"><g><g fill="#57a4ff"><g><path d="m464 328v-112h-408a40 40 0 0 1 -40-40v272a40 40 0 0 0 40 40h408v-112h-32v-48zm-220 96a76 76 0 1 1 76-76 76 76 0 0 1 -76 76z"/><path d="m56 136h72v80h-72a40 40 0 0 1 0-80z"/><path d="m296 136v80h-32v-64h-80v64h-32v-80z"/><path d="m320 136h112v80h-112z"/></g><path d="m272 48h-96a24.006 24.006 0 0 1 -24 24v144h32v-64h80v64h32v-144a24.006 24.006 0 0 1 -24-24zm-48 32a24 24 0 1 1 -24 24 24.006 24.006 0 0 1 24-24z"/><path d="m320 24h48v192h-48z"/><path d="m272 48h-96a24.006 24.006 0 0 1 -24 24v144h32v-64h80v64h32v-144a24.006 24.006 0 0 1 -24-24zm-48 32a24 24 0 1 1 -24 24 24.006 24.006 0 0 1 24-24z"/><path d="m244 248a100 100 0 1 0 100 100 100 100 0 0 0 -100-100zm0 176a76 76 0 1 1 76-76 76 76 0 0 1 -76 76z"/></g><g fill="#004fac"><path d="m480 320h-8v-104a8 8 0 0 0 -8-8h-24v-72a8 8 0 0 0 -8-8h-56v-104a8 8 0 0 0 -8-8h-240a8 8 0 0 0 -8 8v104h-64a48.051 48.051 0 0 0 -48 48v272a48.051 48.051 0 0 0 48 48h408a8 8 0 0 0 8-8v-104h8a24.032 24.032 0 0 0 24-24v-16a24.032 24.032 0 0 0 -24-24zm-104-176h48v64h-48zm-48-112h8v128a8 8 0 0 0 16 0v-128h8v176h-32zm-192 0h176v176h-8v-136a8 8 0 0 0 -8-8 16.021 16.021 0 0 1 -16-16 8 8 0 0 0 -8-8h-96a8 8 0 0 0 -8 8 16.021 16.021 0 0 1 -16 16 8 8 0 0 0 -8 8v136h-8zm128 112h-80a8 8 0 0 0 -8 8v56h-16v-129.01a32.12 32.12 0 0 0 22.99-22.99h82.02a32.12 32.12 0 0 0 22.99 22.99v129.01h-16v-56a8 8 0 0 0 -8-8zm-8 16v48h-64v-48zm-200-16h64v64h-64a32 32 0 0 1 0-64zm400 336h-400a32.03 32.03 0 0 1 -32-32v-236.26a47.8 47.8 0 0 0 32 12.26h400v96h-24a8 8 0 0 0 -8 8v48a8 8 0 0 0 8 8h24zm32-120a8.011 8.011 0 0 1 -8 8h-40v-32h40a8.011 8.011 0 0 1 8 8z"/><path d="m432 448h-120a8 8 0 0 0 0 16h120a8 8 0 0 0 0-16z"/><path d="m400 424a8 8 0 0 0 0 16h32a8 8 0 0 0 0-16z"/><path d="m224 72a32 32 0 1 0 32 32 32.036 32.036 0 0 0 -32-32zm0 48a16 16 0 1 1 16-16 16.019 16.019 0 0 1 -16 16z"/><path d="m244 264a84 84 0 1 0 84 84 84.092 84.092 0 0 0 -84-84zm0 152a68 68 0 1 1 68-68 68.071 68.071 0 0 1 -68 68z"/><path d="m244 240a108 108 0 1 0 108 108 108.124 108.124 0 0 0 -108-108zm0 200a92 92 0 1 1 92-92 92.1 92.1 0 0 1 -92 92z"/><path d="m268.9 339.78a23.986 23.986 0 0 0 -20.9-35.78h-24a8 8 0 0 0 0 16v16a8 8 0 0 0 0 16v24a8 8 0 0 0 0 16h32a24.032 24.032 0 0 0 24-24v-8a23.985 23.985 0 0 0 -11.1-20.22zm-28.9-19.78h8a8 8 0 0 1 0 16h-8zm24 48a8.011 8.011 0 0 1 -8 8h-16v-24h16a8.011 8.011 0 0 1 8 8z"/><path d="m344 176a8 8 0 0 0 -8 8v8a8 8 0 0 0 16 0v-8a8 8 0 0 0 -8-8z"/></g></g></svg>