<?xml version="1.0" encoding="utf-8"?>
<!-- Generator: Adobe Illustrator 22.1.0, SVG Export Plug-In . SVG Version: 6.00 Build 0)  -->
<svg version="1.1" id="Capa_1" xmlns="http://www.w3.org/2000/svg" xmlns:xlink="http://www.w3.org/1999/xlink" x="0px" y="0px"
	 viewBox="0 0 512 512" style="enable-background:new 0 0 512 512;" xml:space="preserve">
<style type="text/css">
	.st0{fill:none;stroke:#6FA8FA;stroke-width:8;stroke-miterlimit:10;}
	.st1{fill:none;stroke:#6FA8FA;stroke-width:5;stroke-miterlimit:10;}
	.st2{fill:none;stroke:#DBE9F6;stroke-width:5;stroke-miterlimit:10;}
	.st3{fill:#2985FD;}
</style>
<polygon class="st0" points="30,403.7 22.2,396.9 12.2,399.5 16.2,390 10.7,381.2 21,382.1 27.6,374.2 29.9,384.2 39.5,388.1 
	30.7,393.4 "/>
<polygon class="st1" points="350.3,434.3 338.7,434.8 332.6,444.7 328.5,433.8 317.2,431 326.3,423.8 325.5,412.2 335.2,418.6 
	345.9,414.2 342.8,425.4 "/>
<polygon class="st1" points="78.5,78.4 75,75.7 70.7,77.1 72.2,72.9 69.5,69.3 74,69.4 76.6,65.8 77.9,70.1 82.1,71.4 78.5,74 "/>
<polygon class="st1" points="268,55 265.6,50.2 260.4,49.5 264.2,45.8 263.3,40.5 268,43 272.7,40.5 271.8,45.8 275.6,49.5 
	270.4,50.2 "/>
<polygon class="st1" points="429.2,273.9 425.6,266.6 417.7,265.5 423.4,259.8 422.1,251.9 429.2,255.6 436.4,251.9 435,259.8 
	440.8,265.5 432.8,266.6 "/>
<circle class="st2" cx="105" cy="472.7" r="14.6"/>
<circle class="st2" cx="75.8" cy="241" r="6.1"/>
<circle class="st2" cx="133.7" cy="118" r="14.2"/>
<circle class="st2" cx="467" cy="89" r="10.6"/>
<circle class="st2" cx="368.3" cy="40.5" r="5.3"/>
<circle class="st2" cx="425.1" cy="377.4" r="11.5"/>
<g>
	<path class="st3" d="M393.9,123.1c-27.6-27.6-72.4-27.6-100,0l-54.1,54.1c-2.3,2.3-2.3,6,0,8.3s6,2.3,8.3,0l54.1-54.1
		c11.1-11.1,25.9-17.2,41.6-17.2c15.8,0,30.6,6.1,41.7,17.2s17.2,25.9,17.2,41.7c0,15.8-6.1,30.6-17.2,41.6l-70.8,70.8
		c-23,23-60.3,23-83.3,0c-2.3-2.3-6-2.3-8.3,0s-2.3,6,0,8.3c13.8,13.8,31.9,20.7,50,20.7s36.2-6.9,50-20.7l70.8-70.8
		c13.3-13.3,20.6-31,20.6-50S407.2,136.4,393.9,123.1z"/>
	<path class="st3" d="M260.6,339.7l-45.8,45.8c-11.1,11.1-25.9,17.2-41.7,17.2s-30.6-6.1-41.7-17.2c-23-23-23-60.3,0-83.3l66.6-66.6
		c23-23,60.3-23,83.3,0c2.3,2.3,6,2.3,8.3,0s2.3-6,0-8.3c-27.6-27.6-72.4-27.6-100,0L122.9,294c-13.3,13.3-20.6,31-20.6,50
		c0,18.9,7.3,36.7,20.6,50s31,20.6,50,20.6c18.9,0,36.7-7.3,50-20.6l45.8-45.8c2.3-2.3,2.3-6,0-8.3
		C266.6,337.4,262.9,337.4,260.6,339.7z"/>
	<path class="st3" d="M302.6,361.7c-3.3,0-5.9,2.6-5.9,5.9v35.3c0,3.3,2.6,5.9,5.9,5.9s5.9-2.6,5.9-5.9v-35.3
		C308.5,364.3,305.8,361.7,302.6,361.7z"/>
	<path class="st3" d="M328.9,351.7c-2.3-2.3-6-2.3-8.3,0s-2.3,6,0,8.3l25,25c1.1,1.1,2.7,1.7,4.2,1.7s3-0.6,4.2-1.7
		c2.3-2.3,2.3-6,0-8.3L328.9,351.7z"/>
	<path class="st3" d="M367.4,326.4H332c-3.3,0-5.9,2.6-5.9,5.9s2.6,5.9,5.9,5.9h35.3c3.3,0,5.9-2.6,5.9-5.9
		C373.3,329,370.6,326.4,367.4,326.4z"/>
	<path class="st3" d="M196.5,167.3c3.3,0,5.9-2.6,5.9-5.9v-35.3c0-3.3-2.6-5.9-5.9-5.9c-3.3,0-5.9,2.6-5.9,5.9v35.3
		C190.6,164.7,193.3,167.3,196.5,167.3z"/>
	<path class="st3" d="M170.2,177.4c1.1,1.1,2.7,1.7,4.2,1.7s3-0.6,4.2-1.7c2.3-2.3,2.3-6,0-8.3l-25-25c-2.3-2.3-6-2.3-8.3,0
		s-2.3,6,0,8.3L170.2,177.4z"/>
	<path class="st3" d="M131.7,202.7H167c3.3,0,5.9-2.6,5.9-5.9c0-3.3-2.6-5.9-5.9-5.9h-35.3c-3.3,0-5.9,2.6-5.9,5.9
		S128.5,202.7,131.7,202.7z"/>
</g>
</svg>
