<svg id="Capa_1" enable-background="new 0 0 496.75 496.75" height="512" viewBox="0 0 496.75 496.75" width="512" xmlns="http://www.w3.org/2000/svg"><g><path d="m443.525 0h-390.3c-10.96 0-19.85 8.88-19.85 19.84v23.44l34.11 57.193h358.87l37.02-57.193v-23.44c0-10.96-8.89-19.84-19.85-19.84z" fill="#5f99d7"/><path d="m114.209 19.84c0-10.96 8.89-19.84 19.85-19.84h-80.834c-10.96 0-19.85 8.88-19.85 19.84v23.44l34.11 57.193h46.724z" fill="#3c87d0"/><g id="XMLID_250_"><g><g><path d="m463.375 43.28v441.878c0 6.402-5.19 11.592-11.592 11.592h-406.816c-6.402 0-11.592-5.19-11.592-11.592v-441.878z" fill="#dff6fd"/></g></g></g><path d="m125.801 496.75c-6.402 0-11.592-5.19-11.592-11.592v-441.878h-80.834v441.878c0 6.402 5.19 11.592 11.592 11.592h406.816.001z" fill="#c8effe"/><g id="XMLID_251_"><g><circle cx="248.015" cy="223.58" fill="#fee97d" r="126.94"/></g></g><path d="m177.055 223.58c0-60.491 42.309-111.09 98.948-123.837-9.006-2.027-18.371-3.103-27.988-3.103-70.11 0-126.94 56.83-126.94 126.94 0 70.1 56.83 126.94 126.94 126.94 9.617 0 18.983-1.076 27.988-3.104-56.639-12.748-98.948-63.353-98.948-123.836z" fill="#fee45a"/><path d="m413.745 346.782h-19.238c-5.532 0-10.016-4.484-10.016-10.016v-19.238c0-5.532 4.484-10.016 10.016-10.016h19.238c5.532 0 10.016 4.484 10.016 10.016v19.238c.001 5.532-4.484 10.016-10.016 10.016z" fill="#c8effe"/><g><path d="m106.709 401.06h-18.48c-4.142 0-7.5-3.357-7.5-7.5s3.358-7.5 7.5-7.5h18.48c4.142 0 7.5 3.357 7.5 7.5s-3.358 7.5-7.5 7.5z" fill="#99e6fc"/></g><g><path d="m409.522 401.06h-18.48c-4.143 0-7.5-3.357-7.5-7.5s3.357-7.5 7.5-7.5h18.48c4.143 0 7.5 3.357 7.5 7.5s-3.358 7.5-7.5 7.5z" fill="#c8effe"/></g><g><path d="m360.771 401.06h-225.229c-4.142 0-7.5-3.357-7.5-7.5s3.358-7.5 7.5-7.5h225.229c4.143 0 7.5 3.357 7.5 7.5s-3.358 7.5-7.5 7.5z" fill="#c8effe"/></g><g><path d="m409.522 445.033h-318.983c-4.142 0-7.5-3.357-7.5-7.5s3.358-7.5 7.5-7.5h318.982c4.143 0 7.5 3.357 7.5 7.5s-3.357 7.5-7.499 7.5z" fill="#c8effe"/></g><path d="m90.539 430.033c-4.142 0-7.5 3.357-7.5 7.5s3.358 7.5 7.5 7.5h23.67v-15z" fill="#99e6fc"/><g><g><path d="m321.755 299.57v27.34c-20.79 14.86-46.24 23.61-73.74 23.61-27.16 0-52.32-8.53-72.96-23.05v-27.9c0-6.32 3.37-12.17 8.84-15.33l45.78-26.47 9.44-4.4h15.78l12.24 4.4 45.78 26.47c5.47 3.16 8.84 9.01 8.84 15.33z" fill="#f37c7c"/></g><path d="m267.135 257.77-10.735-3.859 4.3 8.891-20.42 9.875v-19.307h-1.165l-9.44 4.4-45.78 26.47c-5.47 3.16-8.84 9.01-8.84 15.33v27.9c8.716 6.132 18.246 11.18 28.385 14.984v-24.073c0-6.32 3.37-12.17 8.84-15.33l14.492-8.379c5.499-3.18 11.858-4.376 18.185-3.811.971.087 1.954.131 2.948.131 15.71 0 28.9-10.964 32.342-25.64z" fill="#ee6161"/><path d="m266.131 257.765c0 10.066-8.16 18.226-18.226 18.226-10.066 0-18.226-8.16-18.226-18.226v-49.091h36.453v49.091z" fill="#ffe5c2"/><path d="m273.235 135.385h-48.247l-14.965-4.917c-2.177-.715-4.418.907-4.418 3.199v41.494l15.159 22.961h54.526c7.227-11.113 15.128-22.961 15.128-22.961v-22.593c0-9.49-7.693-17.183-17.183-17.183z" fill="#a79ba7"/><path d="m227.651 191.134-.731.076v-32.477c.731-6.812 7.316-11.58 13.715-9.477l6.399 2.103 43.335-.002c-.623-8.923-8.053-15.971-17.134-15.971h-48.247l-14.965-4.917c-2.178-.716-4.418.907-4.418 3.199v41.494l15.159 22.961h11.501z" fill="#918291"/><path d="m248.011 251.556c6.285 0 12.358-1.175 18.12-3.459v-9.472h-36.453v18.705c0 8.946 6.279 16.868 15.094 18.392 3.516.608 6.861.16 9.836-1.019-6.745-2.673-11.522-9.241-11.522-16.937v-1.424c0-2.678 2.197-4.788 4.875-4.785.017-.001.034-.001.05-.001z" fill="#fed2a4"/><path d="m205.605 175.161v26.989c0 7.724 2.076 14.96 5.684 21.198l4.464-7.106 13.925 21.361 24.415 3.944h7.23l5.663-1.474c13.891-6.964 23.432-21.325 23.432-37.923v-26.989z" fill="#ffe5c2"/><path d="m226.943 197.735v-22.574h-21.338v26.989c0 23.42 18.986 42.406 42.406 42.406 6.823 0 13.264-1.621 18.974-4.484-22.32-1.227-40.042-19.71-40.042-42.337z" fill="#fed2a4"/></g><path d="m214.866 346.13v-20.983c0-4.143-3.358-7.5-7.5-7.5s-7.5 3.357-7.5 7.5v15.918c4.854 1.992 9.865 3.679 15 5.065z" fill="#e94444"/><path d="m295.943 341.144v-15.997c0-4.143-3.357-7.5-7.5-7.5s-7.5 3.357-7.5 7.5v21.035c5.135-1.377 10.144-3.056 15-5.038z" fill="#ee6161"/></g></svg>