<svg id="Capa_1" enable-background="new 0 0 512 512" height="512" viewBox="0 0 512 512" width="512" xmlns="http://www.w3.org/2000/svg"><g><g><g><g><path d="m382.768 421.675h-372.769c-5.522 0-9.999-4.477-9.999-9.999v-290.213l4.999-14.342h382.768l4.999 14.342v290.213c0 5.522-4.476 9.999-9.998 9.999z" fill="#d3effb"/></g><g><path d="m387.767 107.122h-32.598v266.957c0 5.522-4.476 9.999-9.999 9.999h-345.17v27.599c0 5.522 4.477 9.999 9.999 9.999h372.769c5.522 0 9.999-4.477 9.999-9.999v-290.214z" fill="#b1e4f9"/></g><g><path d="m392.766 121.463h-392.766v-88.986c0-5.523 4.477-10 10-10h372.766c5.523 0 10 4.477 10 10z" fill="#5766cb"/></g><g><path d="m382.768 22.477h-27.599v98.986h37.597v-88.987c0-5.522-4.476-9.999-9.998-9.999z" fill="#3d4fc3"/></g><g><circle cx="47.931" cy="71.689" fill="#dd636e" r="14.623"/></g><g><circle cx="92.4" cy="71.689" fill="#ffd064" r="14.623"/></g><g><circle cx="136.869" cy="71.689" fill="#b1e4f9" r="14.623"/></g></g><g><g><path d="m262.529 223.99c-3.213-2.212-7.019-3.391-10.92-3.38-9.92.03-48.154.085-48.154.085-1.209 0-2.145-1.07-1.984-2.268.896-6.677 1.873-13.047 2.458-19.453 1.074-11.771.67-23.413-5.787-33.887-7.07-11.467-18.119-15.441-30.055-11.206-2.106.747-2.985 1.649-2.722 4.065 1.025 9.443 1.972 18.901 2.597 28.377.176 2.672-.22 5.748-1.423 8.088-9.123 17.732-18.543 35.311-27.729 53.011-.343.661-1.03 1.077-1.775 1.077-15.186.008-20.559-.005-27.319-.105-4.756-.058-8.647 3.786-8.647 8.543v72.654c0 4.755 3.89 8.597 8.645 8.539l126.117-.207c10.497-.104 18.437-9.568 17.291-19.614-.174-1.521-.589-3.014-.991-4.502-.258-.958.234-1.961 1.147-2.349 14.358-6.111 12.274-20.477 11.204-25.023-.192-.817.148-1.665.856-2.116 2.632-1.677 8.55-6.375 8.55-14.724 0-7.379-3.623-12.034-5.889-14.223-.058-.056-.155-.142-.276-.246-.809-.693-.947-1.905-.296-2.748.018-.023.032-.042.043-.058 6.509-9.038 4.443-21.868-4.941-28.33z" fill="#90d8f9"/></g></g></g><g><g><path d="m465.891 450.914c-1.821 0-3.647-.66-5.09-1.993l-125.151-115.743c-1.627-1.505-2.505-3.652-2.398-5.865.106-2.214 1.185-4.267 2.95-5.609l125.15-95.225c3.294-2.507 8.001-1.869 10.508 1.427s1.869 8.001-1.428 10.509l-118.042 89.816 118.595 109.679c3.04 2.812 3.225 7.557.413 10.597-1.478 1.598-3.49 2.407-5.507 2.407z" fill="#a71f29"/></g><g><circle cx="340.743" cy="327.672" fill="#dd636e" r="38.62"/></g><g><circle cx="465.892" cy="443.415" fill="#dd636e" r="46.108"/></g><g><circle cx="465.892" cy="232.447" fill="#dd636e" r="30.072"/></g><g><path d="m358.053 293.151c2.617 5.208 4.099 11.084 4.099 17.31 0 21.329-17.291 38.62-38.62 38.62-6.226 0-12.102-1.482-17.31-4.099 6.348 12.635 19.418 21.31 34.521 21.31 21.329 0 38.62-17.291 38.62-38.62 0-15.103-8.676-28.173-21.31-34.521z" fill="#d82e3d"/></g><g><path d="m486.559 402.201c3.124 6.218 4.893 13.234 4.893 20.666 0 25.465-20.643 46.108-46.108 46.108-7.433 0-14.448-1.769-20.666-4.893 7.579 15.084 23.183 25.441 41.215 25.441 25.465 0 46.108-20.643 46.108-46.108-.001-18.032-10.358-33.636-25.442-41.214z" fill="#d82e3d"/></g><g><path d="m474.235 203.557c.764 2.65 1.182 5.447 1.182 8.342 0 16.609-13.464 30.072-30.072 30.072-2.896 0-5.692-.418-8.342-1.182 3.617 12.548 15.178 21.73 28.891 21.73 16.609 0 30.072-13.464 30.072-30.072-.001-13.712-9.183-25.273-21.731-28.89z" fill="#d82e3d"/></g></g></g></svg>